<mxfile host="app.diagrams.net" modified="2021-10-03T23:02:39.784Z" agent="5.0 (Windows NT 6.1; Win64; x64) AppleWebKit/537.36 (KHTML, like Gecko) Chrome/94.0.4606.61 Safari/537.36" etag="dfEq2dscU4nF2tNu-ngo" version="15.2.9" type="github" pages="2">
  <diagram id="prtHgNgQTEPvFCAcTncT" name="Page-1">
    <mxGraphModel dx="868" dy="460" grid="1" gridSize="10" guides="1" tooltips="1" connect="1" arrows="1" fold="1" page="1" pageScale="1" pageWidth="827" pageHeight="1169" math="0" shadow="0">
      <root>
        <mxCell id="0" />
        <mxCell id="1" parent="0" />
        <mxCell id="HcBpkG7dehzBxWVw7Q9M-1" value="" style="strokeWidth=2;html=1;shape=mxgraph.flowchart.start_1;whiteSpace=wrap;fontFamily=Times New Roman;labelBorderColor=#0000FF;fontColor=#3333FF;labelBackgroundColor=#0000FF;" parent="1" vertex="1">
          <mxGeometry x="100" y="110" width="100" height="60" as="geometry" />
        </mxCell>
        <mxCell id="HcBpkG7dehzBxWVw7Q9M-3" value="" style="shape=singleArrow;direction=north;whiteSpace=wrap;html=1;fillColor=#0050ef;strokeColor=#001DBC;fontColor=#ffffff;" parent="1" vertex="1">
          <mxGeometry x="325" y="200" width="20" height="55" as="geometry" />
        </mxCell>
        <mxCell id="HcBpkG7dehzBxWVw7Q9M-8" value="" style="shape=display;whiteSpace=wrap;html=1;" parent="1" vertex="1">
          <mxGeometry x="90" y="210" width="120" height="40" as="geometry" />
        </mxCell>
        <mxCell id="HcBpkG7dehzBxWVw7Q9M-9" value="" style="shape=singleArrow;direction=south;whiteSpace=wrap;html=1;fillColor=#0050ef;strokeColor=#001DBC;fontColor=#ffffff;" parent="1" vertex="1">
          <mxGeometry x="140" y="250" width="20" height="30" as="geometry" />
        </mxCell>
        <mxCell id="HcBpkG7dehzBxWVw7Q9M-11" value="" style="shape=display;whiteSpace=wrap;html=1;" parent="1" vertex="1">
          <mxGeometry x="290" y="120" width="110" height="50" as="geometry" />
        </mxCell>
        <mxCell id="HcBpkG7dehzBxWVw7Q9M-12" value="" style="shape=display;whiteSpace=wrap;html=1;" parent="1" vertex="1">
          <mxGeometry x="100" y="390" width="110" height="50" as="geometry" />
        </mxCell>
        <mxCell id="HcBpkG7dehzBxWVw7Q9M-13" value="" style="shape=display;whiteSpace=wrap;html=1;" parent="1" vertex="1">
          <mxGeometry x="460" y="266.25" width="110" height="57.5" as="geometry" />
        </mxCell>
        <mxCell id="HcBpkG7dehzBxWVw7Q9M-14" value="" style="shape=display;whiteSpace=wrap;html=1;" parent="1" vertex="1">
          <mxGeometry x="260" y="380" width="115" height="50" as="geometry" />
        </mxCell>
        <mxCell id="HcBpkG7dehzBxWVw7Q9M-15" value="" style="shape=display;whiteSpace=wrap;html=1;" parent="1" vertex="1">
          <mxGeometry x="100" y="580" width="90" height="50" as="geometry" />
        </mxCell>
        <mxCell id="HcBpkG7dehzBxWVw7Q9M-17" value="" style="shape=manualInput;whiteSpace=wrap;html=1;" parent="1" vertex="1">
          <mxGeometry x="280" y="560" width="80" height="60" as="geometry" />
        </mxCell>
        <mxCell id="HcBpkG7dehzBxWVw7Q9M-18" value="" style="shape=manualInput;whiteSpace=wrap;html=1;" parent="1" vertex="1">
          <mxGeometry x="110" y="480" width="80" height="50" as="geometry" />
        </mxCell>
        <mxCell id="HcBpkG7dehzBxWVw7Q9M-19" value="" style="shape=manualInput;whiteSpace=wrap;html=1;" parent="1" vertex="1">
          <mxGeometry x="110" y="290" width="80" height="60" as="geometry" />
        </mxCell>
        <mxCell id="HcBpkG7dehzBxWVw7Q9M-20" value="" style="shape=singleArrow;direction=south;whiteSpace=wrap;html=1;fillColor=#0050ef;strokeColor=#001DBC;fontColor=#ffffff;" parent="1" vertex="1">
          <mxGeometry x="140" y="350" width="20" height="30" as="geometry" />
        </mxCell>
        <mxCell id="HcBpkG7dehzBxWVw7Q9M-21" value="" style="html=1;whiteSpace=wrap;aspect=fixed;shape=isoRectangle;" parent="1" vertex="1">
          <mxGeometry x="260" y="250" width="150" height="90" as="geometry" />
        </mxCell>
        <mxCell id="HcBpkG7dehzBxWVw7Q9M-23" value="" style="whiteSpace=wrap;html=1;" parent="1" vertex="1">
          <mxGeometry x="260" y="470" width="120" height="40" as="geometry" />
        </mxCell>
        <mxCell id="HcBpkG7dehzBxWVw7Q9M-24" value="" style="ellipse;whiteSpace=wrap;html=1;" parent="1" vertex="1">
          <mxGeometry x="450" y="120" width="120" height="60" as="geometry" />
        </mxCell>
        <mxCell id="HcBpkG7dehzBxWVw7Q9M-27" value="" style="shape=singleArrow;direction=south;whiteSpace=wrap;html=1;fillColor=#0050ef;strokeColor=#001DBC;fontColor=#ffffff;" parent="1" vertex="1">
          <mxGeometry x="140" y="440" width="20" height="30" as="geometry" />
        </mxCell>
        <mxCell id="HcBpkG7dehzBxWVw7Q9M-33" value="" style="shape=singleArrow;direction=south;whiteSpace=wrap;html=1;fillColor=#0050ef;strokeColor=#001DBC;fontColor=#ffffff;" parent="1" vertex="1">
          <mxGeometry x="140" y="530" width="20" height="30" as="geometry" />
        </mxCell>
        <mxCell id="HcBpkG7dehzBxWVw7Q9M-34" value="" style="shape=singleArrow;direction=east;whiteSpace=wrap;html=1;fillColor=#0050ef;strokeColor=#001DBC;fontColor=#ffffff;" parent="1" vertex="1">
          <mxGeometry x="190" y="590" width="30" height="20" as="geometry" />
        </mxCell>
        <mxCell id="HcBpkG7dehzBxWVw7Q9M-35" value="" style="shape=singleArrow;direction=south;whiteSpace=wrap;html=1;fillColor=#0050ef;strokeColor=#001DBC;fontColor=#ffffff;" parent="1" vertex="1">
          <mxGeometry x="140" y="170" width="20" height="30" as="geometry" />
        </mxCell>
        <mxCell id="HcBpkG7dehzBxWVw7Q9M-36" value="" style="shape=singleArrow;direction=north;whiteSpace=wrap;html=1;fillColor=#0050ef;strokeColor=#001DBC;fontColor=#ffffff;" parent="1" vertex="1">
          <mxGeometry x="320" y="350" width="20" height="30" as="geometry" />
        </mxCell>
        <mxCell id="HcBpkG7dehzBxWVw7Q9M-39" value="" style="shape=singleArrow;direction=north;whiteSpace=wrap;html=1;fillColor=#0050ef;strokeColor=#001DBC;fontColor=#ffffff;" parent="1" vertex="1">
          <mxGeometry x="320" y="440" width="20" height="30" as="geometry" />
        </mxCell>
        <mxCell id="HcBpkG7dehzBxWVw7Q9M-40" value="" style="shape=singleArrow;direction=north;whiteSpace=wrap;html=1;fillColor=#0050ef;strokeColor=#001DBC;fontColor=#ffffff;" parent="1" vertex="1">
          <mxGeometry x="320" y="540" width="20" height="30" as="geometry" />
        </mxCell>
        <mxCell id="HcBpkG7dehzBxWVw7Q9M-41" value="" style="shape=singleArrow;direction=east;whiteSpace=wrap;html=1;fillColor=#0050ef;strokeColor=#001DBC;fontColor=#ffffff;" parent="1" vertex="1">
          <mxGeometry x="410" y="285" width="30" height="20" as="geometry" />
        </mxCell>
        <mxCell id="HcBpkG7dehzBxWVw7Q9M-42" value="" style="shape=singleArrow;direction=east;whiteSpace=wrap;html=1;fillColor=#0050ef;strokeColor=#001DBC;fontColor=#ffffff;" parent="1" vertex="1">
          <mxGeometry x="400" y="140" width="30" height="20" as="geometry" />
        </mxCell>
        <mxCell id="HcBpkG7dehzBxWVw7Q9M-43" value="" style="shape=singleArrow;direction=north;whiteSpace=wrap;html=1;fillColor=#0050ef;strokeColor=#001DBC;fontColor=#ffffff;" parent="1" vertex="1">
          <mxGeometry x="505" y="210" width="20" height="55" as="geometry" />
        </mxCell>
        <mxCell id="HcBpkG7dehzBxWVw7Q9M-2" value="&lt;b&gt;Início&lt;/b&gt;" style="text;html=1;resizable=0;autosize=1;align=center;verticalAlign=middle;points=[];fillColor=none;strokeColor=none;rounded=0;" vertex="1" parent="1">
          <mxGeometry x="125" y="130" width="50" height="20" as="geometry" />
        </mxCell>
        <mxCell id="HcBpkG7dehzBxWVw7Q9M-4" value="&lt;b&gt;Reprovado&lt;/b&gt;" style="text;html=1;resizable=0;autosize=1;align=center;verticalAlign=middle;points=[];fillColor=none;strokeColor=none;rounded=0;" vertex="1" parent="1">
          <mxGeometry x="315" y="135" width="80" height="20" as="geometry" />
        </mxCell>
        <mxCell id="HcBpkG7dehzBxWVw7Q9M-5" value="&lt;b&gt;Fim&lt;/b&gt;" style="text;html=1;resizable=0;autosize=1;align=center;verticalAlign=middle;points=[];fillColor=none;strokeColor=none;rounded=0;" vertex="1" parent="1">
          <mxGeometry x="490" y="140" width="40" height="20" as="geometry" />
        </mxCell>
        <mxCell id="HcBpkG7dehzBxWVw7Q9M-6" value="&lt;b&gt;Informe a&lt;br&gt;&amp;nbsp;primeira nota&lt;/b&gt;:" style="text;html=1;resizable=0;autosize=1;align=center;verticalAlign=middle;points=[];fillColor=none;strokeColor=none;rounded=0;" vertex="1" parent="1">
          <mxGeometry x="110" y="215" width="100" height="30" as="geometry" />
        </mxCell>
        <mxCell id="HcBpkG7dehzBxWVw7Q9M-7" value="&lt;b&gt;A média&lt;br&gt;é maior ou igual&lt;br&gt;A 7?&lt;/b&gt;" style="text;html=1;resizable=0;autosize=1;align=center;verticalAlign=middle;points=[];fillColor=none;strokeColor=none;rounded=0;" vertex="1" parent="1">
          <mxGeometry x="280" y="270" width="110" height="50" as="geometry" />
        </mxCell>
        <mxCell id="HcBpkG7dehzBxWVw7Q9M-10" value="&lt;b&gt;Aprovado&lt;/b&gt;" style="text;html=1;resizable=0;autosize=1;align=center;verticalAlign=middle;points=[];fillColor=none;strokeColor=none;rounded=0;" vertex="1" parent="1">
          <mxGeometry x="480" y="285" width="70" height="20" as="geometry" />
        </mxCell>
        <mxCell id="HcBpkG7dehzBxWVw7Q9M-16" value="&lt;b&gt;nota 1&lt;/b&gt;" style="text;html=1;resizable=0;autosize=1;align=center;verticalAlign=middle;points=[];fillColor=none;strokeColor=none;rounded=0;" vertex="1" parent="1">
          <mxGeometry x="130" y="320" width="50" height="20" as="geometry" />
        </mxCell>
        <mxCell id="HcBpkG7dehzBxWVw7Q9M-22" value="&lt;b&gt;Informe a&lt;br&gt;segunda nota:&lt;/b&gt;" style="text;html=1;resizable=0;autosize=1;align=center;verticalAlign=middle;points=[];fillColor=none;strokeColor=none;rounded=0;" vertex="1" parent="1">
          <mxGeometry x="105" y="400" width="100" height="30" as="geometry" />
        </mxCell>
        <mxCell id="HcBpkG7dehzBxWVw7Q9M-25" value="&lt;b&gt;nota 2&lt;/b&gt;" style="text;html=1;resizable=0;autosize=1;align=center;verticalAlign=middle;points=[];fillColor=none;strokeColor=none;rounded=0;" vertex="1" parent="1">
          <mxGeometry x="135" y="500" width="50" height="20" as="geometry" />
        </mxCell>
        <mxCell id="HcBpkG7dehzBxWVw7Q9M-26" value="&lt;b&gt;média&lt;/b&gt;" style="text;html=1;resizable=0;autosize=1;align=center;verticalAlign=middle;points=[];fillColor=none;strokeColor=none;rounded=0;" vertex="1" parent="1">
          <mxGeometry x="300" y="395" width="50" height="20" as="geometry" />
        </mxCell>
        <mxCell id="HcBpkG7dehzBxWVw7Q9M-28" value="&lt;b&gt;média = (nota1 +&lt;br&gt;nota2 + nota3)/3&lt;/b&gt;" style="text;html=1;resizable=0;autosize=1;align=center;verticalAlign=middle;points=[];fillColor=none;strokeColor=none;rounded=0;" vertex="1" parent="1">
          <mxGeometry x="270" y="475" width="110" height="30" as="geometry" />
        </mxCell>
        <mxCell id="HcBpkG7dehzBxWVw7Q9M-29" value="&lt;b&gt;nota3&lt;/b&gt;" style="text;html=1;resizable=0;autosize=1;align=center;verticalAlign=middle;points=[];fillColor=none;strokeColor=none;rounded=0;" vertex="1" parent="1">
          <mxGeometry x="300" y="590" width="50" height="20" as="geometry" />
        </mxCell>
        <mxCell id="HcBpkG7dehzBxWVw7Q9M-30" value="&lt;b&gt;Informe a&amp;nbsp;&lt;br&gt;terceira nota&lt;/b&gt;:" style="text;html=1;resizable=0;autosize=1;align=center;verticalAlign=middle;points=[];fillColor=none;strokeColor=none;rounded=0;" vertex="1" parent="1">
          <mxGeometry x="105" y="590" width="90" height="30" as="geometry" />
        </mxCell>
      </root>
    </mxGraphModel>
  </diagram>
  <diagram id="brJRh0IN-WvfsSCcGORM" name="Page-2">
    <mxGraphModel dx="868" dy="460" grid="1" gridSize="10" guides="1" tooltips="1" connect="1" arrows="1" fold="1" page="1" pageScale="1" pageWidth="827" pageHeight="1169" math="0" shadow="0">
      <root>
        <mxCell id="kPwDurUMmDJzh89rg4rM-0" />
        <mxCell id="kPwDurUMmDJzh89rg4rM-1" parent="kPwDurUMmDJzh89rg4rM-0" />
      </root>
    </mxGraphModel>
  </diagram>
</mxfile>
